<?xml version="1.0" encoding="UTF-8"?>
<svg id="Livello_1" data-name="Livello 1" xmlns="http://www.w3.org/2000/svg" version="1.1" viewBox="0 0 1024 512">
  <defs>
    <style>
      .cls-1 {
        fill: #fff;
        stroke-width: 0px;
      }
    </style>
  </defs>
  <path class="cls-1" d="M478.2,338h-82.1v-191c0-14.4-10.9-26.8-25.4-27.9-14.5-1.1-29.4,11.5-29.4,27.3v219c0,15.1,12.3,27.4,27.4,27.4h108.9c14.4,0,26.8-10.9,27.9-25.4s-11.5-29.4-27.3-29.4h0ZM389.3,383.5h-.2l.2-.2v.2ZM370.8,386.7c-13.6,1.4-24.9-9.9-23.5-23.5,1-10,9.1-18.1,19.1-19.1,10-1,24.9,9.9,23.5,23.5s-9.1,18.1-19.1,19.1ZM368.7,332.1c-12.3,0-22.2-10.4-21.4-22.8.7-10.7,9.3-19.3,20-20,12.5-.8,22.8,9.1,22.8,21.4s-9.6,21.4-21.4,21.4ZM370.8,277.3c-13.6,1.4-24.9-9.9-23.5-23.5,1-10,9.1-18.1,19.1-19.1s24.9,9.9,23.5,23.5c-1,10-9.1,18.1-19.1,19.1ZM382.6,232.5h0ZM370.8,222.6c-13.6,1.4-24.9-9.9-23.5-23.5,1-10,9.1-18.1,19.1-19.1s24.9,9.9,23.5,23.5c-1,10-9.1,18.1-19.1,19.1ZM353,178.9h0ZM358.8,175.7h.2-.2ZM378.2,172.1h0ZM383.6,169.4h0ZM370.8,167.9c-13.6,1.4-24.9-9.9-23.5-23.5,1-10,9.1-18.1,19.1-19.1,13.6-1.4,24.9,9.9,23.5,23.5s-9.1,18.1-19.1,19.1ZM425.5,386.7c-13.6,1.4-24.9-9.9-23.5-23.5,1-10,9.1-18.1,19.1-19.1,10-1,24.9,9.9,23.5,23.5s-9.1,18.1-19.1,19.1ZM480.4,386.7c-13.6,1.4-24.9-9.9-23.5-23.5,1-10,9.1-18.1,19.1-19.1,10-1,24.9,9.9,23.5,23.5-1.4,13.6-9.1,18.1-19.1,19.1Z"/>
  <path class="cls-1" d="M181.2,353.3c-53.7,0-97.2-43.5-97.2-97.2s43.5-97.2,97.2-97.2,66,18.8,83.1,46.8l65.8-57.3c-23.1-23.1-18.2-18.2-41.3-41.3l-29.4,19.8c-18-7.5-24.1-10-42.1-17.5l-6.8-34.8h-58.4l-6.8,34.8c-18,7.5-24,10-42.1,17.5l-29.4-19.8c-23.1,23.1-18.2,18.2-41.3,41.3l19.8,29.4c-7.4,18-10,24-17.4,42.1L0,226.9v58.4l34.8,6.8c7.4,18.1,10,24,17.4,42.1l-19.8,29.4c23.1,23.1,18.2,18.2,41.3,41.3l29.4-19.8c18,7.4,24,10,42.1,17.4l6.8,34.8h58.4l6.8-34.8c18-7.4,24.1-10,42.1-17.4l29.4,19.8,41.3-41.3-65.8-57.3c-17,28.1-47.9,46.8-83.1,46.8h0Z"/>
  <g>
    <path class="cls-1" d="M469.2,318.7c-5.1-5.3-9.8-10.7-14-16.2-4.2-5.5-8.3-11.3-12.4-17.3h-12.1v31.9h-13.7v-81.4h29.8c4,0,7.7.6,11,1.8,3.3,1.2,6.2,2.9,8.6,5.1,2.4,2.2,4.3,4.8,5.6,7.9,1.3,3.1,2,6.5,2,10.2,0,6.1-1.6,11-4.8,14.7-3.2,3.7-7.5,6.4-12.8,7.9,3.7,5.1,7.4,9.8,11.1,14.2,3.7,4.4,7.6,8.7,11.6,12.7l-9.9,8.5ZM445.7,274.5c4.4,0,7.9-1.2,10.5-3.7,2.6-2.5,3.9-5.9,3.9-10.1s-1.3-7.6-3.9-10c-2.6-2.5-6.1-3.7-10.5-3.7h-15v27.5h15Z"/>
    <path class="cls-1" d="M594.1,317.3v-81.4h30.3c4,0,7.6.5,10.9,1.4,3.3,1,6,2.3,8.3,4.1,2.3,1.8,4.1,4,5.3,6.5,1.2,2.5,1.8,5.4,1.8,8.5,0,4.5-1.2,8.3-3.6,11.2-2.4,3-5.5,5.4-9.2,7.3,5.1,1.8,9.1,4.3,12.1,7.7,3,3.4,4.5,7.6,4.5,12.7s-.7,6.7-2.1,9.4c-1.4,2.7-3.3,5-5.8,6.9-2.4,1.8-5.3,3.2-8.5,4.2-3.3,1-6.8,1.4-10.5,1.4h-33.5ZM623.1,270.5c4.3,0,7.7-1.1,10.1-3.2,2.4-2.1,3.6-5.1,3.6-8.8s-1.2-6.3-3.5-8.4c-2.3-2.1-5.7-3.1-10.2-3.1h-15.3v23.5h15.3ZM627,306.1c4.1,0,7.4-1.1,9.9-3.2,2.5-2.1,3.7-5,3.7-8.7s-1.3-7-3.8-9.3-5.8-3.5-9.8-3.5h-19.2v24.6h19.2Z"/>
    <g>
      <path class="cls-1" d="M872.3,316.9h-13.7v-81.4h13.7v81.4Z"/>
      <path class="cls-1" d="M922.8,316.9h-13.7v-70.1h-25.1v-11.3h63.9v11.3h-25.1v70.1Z"/>
      <path class="cls-1" d="M995.7,316.9h-13.7v-30.5l-28.4-50.9h15.2l20.2,38.6,20.6-38.6h14.5l-28.3,50.9v30.5Z"/>
    </g>
    <path class="cls-1" d="M582,283.4v-15.2l-9-1.8c-1.9-4.7-2.6-6.3-4.6-10.9l5.1-7.7c-6-6-4.8-4.8-10.7-10.7l-7.7,5.1c-4.7-2-6.3-2.6-10.9-4.6l-1.8-9h-15.2l-1.8,9c-4.7,2-6.3,2.6-10.9,4.6l-7.7-5.1c-6,6-4.8,4.8-10.7,10.7l5.1,7.7c-1.9,4.7-2.6,6.3-4.6,10.9l-9,1.8v15.2l9,1.8c1.9,4.7,2.6,6.3,4.6,10.9l-5.1,7.7c6,6,4.8,4.8,10.7,10.7l7.7-5.1c4.7,1.9,6.3,2.6,10.9,4.6l1.8,9h15.2l1.8-9c4.7-1.9,6.3-2.6,10.9-4.6l7.7,5.1c6-6,4.8-4.8,10.7-10.7l-5.1-7.7c1.9-4.7,2.6-6.3,4.6-10.9l9-1.8ZM534.8,301.2h0c-14,0-25.4-11.3-25.4-25.4s11.4-25.4,25.4-25.4h0c14,0,25.4,11.4,25.4,25.4s-11.4,25.4-25.4,25.4Z"/>
    <g>
      <path class="cls-1" d="M807.5,302.8c-14.1,0-25.5-11.4-25.5-25.5s11.4-25.5,25.5-25.5,17.3,4.9,21.8,12.3l17.3-15.1c-6-6-4.8-4.8-10.8-10.8l-7.7,5.3c-4.7-2-6.4-2.6-11.1-4.6l-1.8-9.2h-15.3l-1.8,9.2c-4.7,2-6.3,2.6-11.1,4.6l-7.7-5.3c-6,6-4.8,4.8-10.8,10.8l5.3,7.7c-1.9,4.7-2.6,6.3-4.6,11.1l-9.2,1.8v15.3l9.2,1.8c1.9,4.8,2.6,6.3,4.6,11.1l-5.3,7.7c6,6,4.8,4.8,10.8,10.8l7.7-5.3c4.7,1.9,6.3,2.6,11.1,4.6l1.8,9.2h15.3l1.8-9.2c4.7-1.9,6.4-2.6,11.1-4.6l7.7,5.3,10.8-10.8-17.3-15.1c-4.5,7.4-12.5,12.3-21.8,12.3h0Z"/>
      <path class="cls-1" d="M759.9,266.3l-5.8-14.1-9,1.8c-3.6-3.6-4.8-4.8-8.4-8.4l1.8-9c-7.8-3.2-6.3-2.6-14.1-5.8l-5.1,7.7h-12l-5.1-7.7-7,2.9-7,2.9,1.8,9c-3.6,3.6-4.8,4.8-8.4,8.4l-9-1.8c-3.2,7.8-2.6,6.3-5.8,14.1l7.7,5.1v11.8l-7.7,5.1,5.8,14.1,9-1.8c3.6,3.6,4.8,4.8,8.4,8.4l-1.8,9c7.8,3.2,6.3,2.6,14.1,5.8l5.1-7.7h11.8l5.1,7.7,7-2.9,7-2.9-1.8-9c3.6-3.6,4.8-4.8,8.4-8.4l9,1.8c3.2-7.8,2.6-6.3,5.8-14.1l-7.7-5.1v-11.8l7.7-5.1h.1ZM723,300.8h0c-13,5.4-27.7-.8-33.1-13.7-5.4-13,.8-27.7,13.7-33.1s0,0,0,0h0c13-5.4,27.7.8,33.1,13.7,5.4,13-.8,27.7-13.7,33.1Z"/>
    </g>
  </g>
</svg>